<svg xmlns="http://www.w3.org/2000/svg" xmlns:xlink="http://www.w3.org/1999/xlink" width="256" zoomAndPan="magnify" viewBox="0 0 192 191.999996" height="256" preserveAspectRatio="xMidYMid meet" version="1.0"><defs><g/><clipPath id="ad4f431670"><path d="M 55.75 35.414062 L 132.25 35.414062 L 132.25 98.414062 L 55.75 98.414062 Z M 55.75 35.414062 " clip-rule="nonzero"/></clipPath></defs><g clip-path="url(#ad4f431670)"><path fill="#f5793b" d="M 72.417969 93.007812 L 72.417969 57.710938 C 72.679688 57.570312 72.921875 57.414062 73.183594 57.277344 C 75.265625 56.097656 77.332031 54.933594 79.414062 53.753906 L 80.164062 53.335938 L 80.890625 53.753906 L 85.09375 56.148438 L 85.09375 39.550781 L 85.855469 39.117188 L 91.621094 35.851562 L 92.351562 35.433594 L 93.078125 35.851562 L 105.214844 42.726562 L 105.980469 43.160156 L 105.980469 54.570312 L 107.421875 53.753906 L 108.148438 53.335938 L 108.878906 53.753906 L 115.113281 57.277344 L 115.875 57.710938 L 115.875 93.007812 C 123.621094 94.308594 129.574219 96.289062 132.542969 98.617188 C 123.359375 95.960938 109.574219 94.277344 94.140625 94.277344 C 78.703125 94.277344 64.933594 95.960938 55.75 98.617188 C 58.71875 96.273438 64.675781 94.292969 72.417969 93.007812 Z M 108.167969 91.984375 C 108.167969 81.375 108.167969 66.964844 108.167969 56.757812 C 102.890625 59.742188 97.628906 62.730469 92.351562 65.699219 L 92.351562 91.339844 C 92.941406 91.339844 93.546875 91.324219 94.15625 91.324219 C 99.070312 91.324219 103.792969 91.566406 108.167969 91.984375 Z M 85.074219 91.601562 L 85.074219 59.585938 C 83.425781 58.648438 81.777344 57.710938 80.128906 56.773438 L 80.128906 91.984375 C 81.742188 91.828125 83.390625 91.707031 85.074219 91.601562 Z M 102.992188 44.878906 C 99.453125 42.867188 95.890625 40.871094 92.351562 38.855469 L 92.351562 62.277344 C 95.890625 60.261719 99.453125 58.265625 102.992188 56.253906 Z M 102.992188 44.878906 " fill-opacity="1" fill-rule="evenodd"/></g><g fill="#264e86" fill-opacity="1"><g transform="translate(17.942004, 121.268681)"><g><path d="M 5.578125 -18.140625 L 5.578125 -10.890625 L 12.421875 -10.890625 L 12.421875 -18.140625 L 16.359375 -18.140625 L 16.359375 0 L 12.46875 0 L 12.46875 -7.953125 L 5.578125 -7.953125 L 5.578125 0 L 1.6875 0 L 1.6875 -18.140625 Z M 5.578125 -18.140625 "/></g></g></g><g fill="#264e86" fill-opacity="1"><g transform="translate(36.054093, 121.268681)"><g><path d="M 14 -18.140625 L 14 -15.1875 L 5.75 -15.1875 L 5.75 -10.859375 L 13.46875 -10.859375 L 13.46875 -7.90625 L 5.75 -7.90625 L 5.75 -3.015625 L 14.28125 -3.015625 L 14.28125 0 L 1.859375 0 L 1.859375 -18.140625 Z M 14 -18.140625 "/></g></g></g><g fill="#264e86" fill-opacity="1"><g transform="translate(51.381637, 121.268681)"><g><path d="M 5.703125 -18.125 L 5.703125 -3.09375 L 13.46875 -3.09375 L 13.46875 0 L 1.734375 0 L 1.734375 -18.125 Z M 5.703125 -18.125 "/></g></g></g><g fill="#264e86" fill-opacity="1"><g transform="translate(65.329451, 121.268681)"><g><path d="M 5.390625 -18.1875 L 5.390625 0 L 1.5 0 L 1.5 -18.1875 Z M 5.390625 -18.1875 "/></g></g></g><g fill="#264e86" fill-opacity="1"><g transform="translate(72.30336, 121.268681)"><g><path d="M 18.46875 -9.234375 C 18.46875 -6.253906 17.695312 -3.894531 16.15625 -2.15625 C 14.625 -0.414062 12.5 0.453125 9.78125 0.453125 C 7.039062 0.453125 4.90625 -0.359375 3.375 -1.984375 C 1.84375 -3.617188 1.078125 -5.898438 1.078125 -8.828125 C 1.078125 -11.835938 1.835938 -14.203125 3.359375 -15.921875 C 4.878906 -17.648438 7.019531 -18.515625 9.78125 -18.515625 C 12.625 -18.515625 14.78125 -17.648438 16.25 -15.921875 C 17.726562 -14.203125 18.46875 -11.972656 18.46875 -9.234375 Z M 9.71875 -2.40625 C 11.375 -2.40625 12.566406 -3.023438 13.296875 -4.265625 C 14.035156 -5.503906 14.40625 -7.191406 14.40625 -9.328125 C 14.40625 -11.273438 14.003906 -12.828125 13.203125 -13.984375 C 12.410156 -15.148438 11.289062 -15.734375 9.84375 -15.734375 C 8.300781 -15.734375 7.128906 -15.160156 6.328125 -14.015625 C 5.535156 -12.867188 5.140625 -11.242188 5.140625 -9.140625 C 5.140625 -6.878906 5.53125 -5.191406 6.3125 -4.078125 C 7.101562 -2.960938 8.238281 -2.40625 9.71875 -2.40625 Z M 9.71875 -2.40625 "/></g></g></g><g fill="#264e86" fill-opacity="1"><g transform="translate(91.820264, 121.268681)"><g><path d="M 4.546875 -18.0625 L 9.28125 -3.84375 L 14.046875 -18.0625 L 17.890625 -18.0625 L 11.21875 0 L 6.96875 0 L 0.296875 -18.0625 Z M 4.546875 -18.0625 "/></g></g></g><g fill="#264e86" fill-opacity="1"><g transform="translate(109.932353, 121.268681)"><g><path d="M 5.390625 -18.1875 L 5.390625 0 L 1.5 0 L 1.5 -18.1875 Z M 5.390625 -18.1875 "/></g></g></g><g fill="#264e86" fill-opacity="1"><g transform="translate(116.906257, 121.268681)"><g><path d="M 14 -18.140625 L 14 -15.1875 L 5.75 -15.1875 L 5.75 -10.859375 L 13.46875 -10.859375 L 13.46875 -7.90625 L 5.75 -7.90625 L 5.75 -3.015625 L 14.28125 -3.015625 L 14.28125 0 L 1.859375 0 L 1.859375 -18.140625 Z M 14 -18.140625 "/></g></g></g><g fill="#264e86" fill-opacity="1"><g transform="translate(132.233795, 121.268681)"><g><path d="M 4.390625 -18.0625 L 7.203125 -4.515625 L 10.734375 -18.0625 L 15.125 -18.0625 L 18.3125 -4.515625 L 21.25 -18.0625 L 24.96875 -18.0625 L 20.34375 0.046875 L 16.03125 0.046875 L 12.75 -13.796875 L 9.203125 0.046875 L 4.796875 0.046875 L 0.375 -18.0625 Z M 4.390625 -18.0625 "/></g></g></g><g fill="#264e86" fill-opacity="1"><g transform="translate(157.319794, 121.268681)"><g><path d="M 15.125 -13.078125 L 15.125 -12.953125 L 11.390625 -12.953125 L 11.390625 -13.078125 C 11.304688 -13.910156 11.015625 -14.554688 10.515625 -15.015625 C 10.023438 -15.472656 9.335938 -15.703125 8.453125 -15.703125 C 7.585938 -15.703125 6.875 -15.488281 6.3125 -15.0625 C 5.75 -14.632812 5.46875 -14.03125 5.46875 -13.25 C 5.46875 -12.375 5.867188 -11.769531 6.671875 -11.4375 C 7.472656 -11.101562 8.644531 -10.757812 10.1875 -10.40625 C 12.164062 -9.976562 13.566406 -9.363281 14.390625 -8.5625 C 15.222656 -7.769531 15.640625 -6.738281 15.640625 -5.46875 C 15.640625 -3.695312 14.925781 -2.269531 13.5 -1.1875 C 12.082031 -0.113281 10.242188 0.421875 7.984375 0.421875 C 5.535156 0.421875 3.738281 -0.0859375 2.59375 -1.109375 C 1.445312 -2.128906 0.875 -3.691406 0.875 -5.796875 L 4.84375 -5.796875 L 4.84375 -5.640625 C 4.84375 -4.503906 5.125 -3.671875 5.6875 -3.140625 C 6.257812 -2.617188 7.070312 -2.359375 8.125 -2.359375 C 9.09375 -2.359375 9.90625 -2.570312 10.5625 -3 C 11.226562 -3.4375 11.5625 -4.078125 11.5625 -4.921875 C 11.5625 -5.441406 11.410156 -5.867188 11.109375 -6.203125 C 10.816406 -6.535156 9.863281 -6.898438 8.25 -7.296875 C 5.425781 -7.984375 3.585938 -8.765625 2.734375 -9.640625 C 1.878906 -10.523438 1.453125 -11.578125 1.453125 -12.796875 C 1.453125 -14.554688 2.09375 -15.9375 3.375 -16.9375 C 4.65625 -17.9375 6.40625 -18.4375 8.625 -18.4375 C 10.632812 -18.4375 12.21875 -17.960938 13.375 -17.015625 C 14.539062 -16.078125 15.125 -14.765625 15.125 -13.078125 Z M 15.125 -13.078125 "/></g></g></g><g fill="#264e86" fill-opacity="1"><g transform="translate(21.351997, 134.322316)"><g><path d="M 1.234375 -5.203125 L 1.234375 0 L 0.765625 0 L 0.765625 -5.203125 Z M 1.234375 -5.203125 "/></g></g></g><g fill="#264e86" fill-opacity="1"><g transform="translate(23.343586, 134.322316)"><g><path d="M 1.1875 -5.171875 L 1.1875 -0.4375 L 3.78125 -0.4375 L 3.78125 0 L 0.71875 0 L 0.71875 -5.171875 Z M 1.1875 -5.171875 "/></g></g></g><g fill="#264e86" fill-opacity="1"><g transform="translate(27.326772, 134.322316)"><g><path d="M 1.1875 -5.171875 L 1.1875 -0.4375 L 3.78125 -0.4375 L 3.78125 0 L 0.71875 0 L 0.71875 -5.171875 Z M 1.1875 -5.171875 "/></g></g></g><g fill="#264e86" fill-opacity="1"><g transform="translate(31.309957, 134.322316)"><g><path d="M 1.15625 -5.171875 L 1.15625 -1.890625 C 1.15625 -1.421875 1.285156 -1.039062 1.546875 -0.75 C 1.804688 -0.46875 2.15625 -0.328125 2.59375 -0.328125 C 3.03125 -0.328125 3.375 -0.46875 3.625 -0.75 C 3.882812 -1.03125 4.015625 -1.414062 4.015625 -1.90625 L 4.015625 -5.171875 L 4.484375 -5.171875 L 4.484375 -1.875 C 4.484375 -1.269531 4.316406 -0.785156 3.984375 -0.421875 C 3.660156 -0.0664062 3.195312 0.109375 2.59375 0.109375 C 1.988281 0.109375 1.519531 -0.0664062 1.1875 -0.421875 C 0.863281 -0.773438 0.703125 -1.253906 0.703125 -1.859375 L 0.703125 -5.171875 Z M 1.15625 -5.171875 "/></g></g></g><g fill="#264e86" fill-opacity="1"><g transform="translate(36.482367, 134.322316)"><g><path d="M 1.4375 -5.171875 L 3.390625 -0.671875 L 5.375 -5.171875 L 6.078125 -5.171875 L 6.078125 0 L 5.609375 0 L 5.609375 -4.78125 L 5.59375 -4.78125 L 3.625 0 L 3.15625 0 L 1.171875 -4.765625 L 1.15625 -4.765625 L 1.15625 0 L 0.703125 0 L 0.703125 -5.171875 Z M 1.4375 -5.171875 "/></g></g></g><g fill="#264e86" fill-opacity="1"><g transform="translate(43.245187, 134.322316)"><g><path d="M 1.234375 -5.203125 L 1.234375 0 L 0.765625 0 L 0.765625 -5.203125 Z M 1.234375 -5.203125 "/></g></g></g><g fill="#264e86" fill-opacity="1"><g transform="translate(45.236777, 134.322316)"><g><path d="M 1.1875 -5.171875 L 4.046875 -0.625 L 4.0625 -0.625 L 4.0625 -5.171875 L 4.53125 -5.171875 L 4.53125 0 L 3.9375 0 L 1.140625 -4.46875 L 1.125 -4.46875 L 1.125 0 L 0.65625 0 L 0.65625 -5.171875 Z M 1.1875 -5.171875 "/></g></g></g><g fill="#264e86" fill-opacity="1"><g transform="translate(50.409187, 134.322316)"><g><path d="M 2.65625 -5.171875 L 4.71875 0 L 4.21875 0 L 3.671875 -1.40625 L 1.09375 -1.40625 L 0.546875 0 L 0.0625 0 L 2.109375 -5.171875 Z M 1.234375 -1.828125 L 3.5 -1.828125 L 2.375 -4.75 Z M 1.234375 -1.828125 "/></g></g></g><g fill="#264e86" fill-opacity="1"><g transform="translate(55.187577, 134.322316)"><g><path d="M 3.890625 -5.171875 L 3.890625 -4.75 L 2.25 -4.75 L 2.234375 0 L 1.78125 0 L 1.765625 -4.75 L 0.09375 -4.75 L 0.09375 -5.171875 Z M 3.890625 -5.171875 "/></g></g></g><g fill="#264e86" fill-opacity="1"><g transform="translate(59.170762, 134.322316)"><g><path d="M 3.8125 -5.171875 L 3.8125 -4.75 L 1.203125 -4.75 L 1.203125 -2.890625 L 3.703125 -2.890625 L 3.703125 -2.453125 L 1.203125 -2.453125 L 1.203125 -0.4375 L 3.921875 -0.4375 L 3.921875 0 L 0.734375 0 L 0.734375 -5.171875 Z M 3.8125 -5.171875 "/></g></g></g><g fill="#264e86" fill-opacity="1"><g transform="translate(63.547967, 134.322316)"><g/></g></g><g fill="#264e86" fill-opacity="1"><g transform="translate(65.539557, 134.322316)"><g><path d="M 0.65625 -5.171875 L 2.234375 -2.671875 L 3.828125 -5.171875 L 4.328125 -5.171875 L 2.4375 -2.25 L 2.4375 0 L 1.96875 0 L 1.96875 -2.234375 L 0.0625 -5.171875 Z M 0.65625 -5.171875 "/></g></g></g><g fill="#264e86" fill-opacity="1"><g transform="translate(69.916762, 134.322316)"><g><path d="M 5.09375 -2.59375 C 5.09375 -1.769531 4.890625 -1.113281 4.484375 -0.625 C 4.078125 -0.144531 3.515625 0.0976562 2.796875 0.109375 C 2.066406 0.109375 1.5 -0.128906 1.09375 -0.609375 C 0.695312 -1.097656 0.492188 -1.757812 0.484375 -2.59375 C 0.484375 -3.414062 0.6875 -4.066406 1.09375 -4.546875 C 1.5 -5.035156 2.066406 -5.28125 2.796875 -5.28125 C 3.515625 -5.28125 4.078125 -5.035156 4.484375 -4.546875 C 4.890625 -4.066406 5.09375 -3.414062 5.09375 -2.59375 Z M 2.796875 -0.328125 C 3.359375 -0.328125 3.796875 -0.535156 4.109375 -0.953125 C 4.429688 -1.367188 4.59375 -1.914062 4.59375 -2.59375 C 4.59375 -3.28125 4.429688 -3.828125 4.109375 -4.234375 C 3.785156 -4.648438 3.34375 -4.859375 2.78125 -4.859375 C 2.226562 -4.859375 1.789062 -4.648438 1.46875 -4.234375 C 1.15625 -3.828125 0.992188 -3.28125 0.984375 -2.59375 C 0.984375 -1.925781 1.140625 -1.382812 1.453125 -0.96875 C 1.765625 -0.550781 2.210938 -0.335938 2.796875 -0.328125 Z M 2.796875 -0.328125 "/></g></g></g><g fill="#264e86" fill-opacity="1"><g transform="translate(75.490357, 134.322316)"><g><path d="M 1.15625 -5.171875 L 1.15625 -1.890625 C 1.15625 -1.421875 1.285156 -1.039062 1.546875 -0.75 C 1.804688 -0.46875 2.15625 -0.328125 2.59375 -0.328125 C 3.03125 -0.328125 3.375 -0.46875 3.625 -0.75 C 3.882812 -1.03125 4.015625 -1.414062 4.015625 -1.90625 L 4.015625 -5.171875 L 4.484375 -5.171875 L 4.484375 -1.875 C 4.484375 -1.269531 4.316406 -0.785156 3.984375 -0.421875 C 3.660156 -0.0664062 3.195312 0.109375 2.59375 0.109375 C 1.988281 0.109375 1.519531 -0.0664062 1.1875 -0.421875 C 0.863281 -0.773438 0.703125 -1.253906 0.703125 -1.859375 L 0.703125 -5.171875 Z M 1.15625 -5.171875 "/></g></g></g><g fill="#264e86" fill-opacity="1"><g transform="translate(80.662767, 134.322316)"><g><path d="M 2.53125 -5.171875 C 3.050781 -5.171875 3.457031 -5.054688 3.75 -4.828125 C 4.039062 -4.609375 4.1875 -4.273438 4.1875 -3.828125 C 4.1875 -3.554688 4.097656 -3.320312 3.921875 -3.125 C 3.742188 -2.925781 3.5 -2.789062 3.1875 -2.71875 L 3.1875 -2.703125 C 3.476562 -2.648438 3.691406 -2.519531 3.828125 -2.3125 C 3.972656 -2.113281 4.0625 -1.71875 4.09375 -1.125 C 4.125 -0.539062 4.203125 -0.164062 4.328125 0 L 3.78125 0 C 3.695312 -0.226562 3.632812 -0.609375 3.59375 -1.140625 C 3.5625 -1.679688 3.484375 -2.035156 3.359375 -2.203125 C 3.242188 -2.378906 2.96875 -2.46875 2.53125 -2.46875 L 1.203125 -2.46875 L 1.203125 0 L 0.734375 0 L 0.734375 -5.171875 Z M 2.296875 -2.890625 C 2.785156 -2.890625 3.132812 -2.960938 3.34375 -3.109375 C 3.5625 -3.265625 3.671875 -3.503906 3.671875 -3.828125 C 3.671875 -4.140625 3.578125 -4.367188 3.390625 -4.515625 C 3.203125 -4.671875 2.921875 -4.75 2.546875 -4.75 L 1.203125 -4.75 L 1.203125 -2.890625 Z M 2.296875 -2.890625 "/></g></g></g><g fill="#264e86" fill-opacity="1"><g transform="translate(85.441157, 134.322316)"><g/></g></g><g fill="#264e86" fill-opacity="1"><g transform="translate(87.432747, 134.322316)"><g><path d="M 2.15625 -5.171875 C 2.8125 -5.171875 3.300781 -5.046875 3.625 -4.796875 C 3.957031 -4.554688 4.125 -4.195312 4.125 -3.71875 C 4.125 -3.226562 3.953125 -2.859375 3.609375 -2.609375 C 3.273438 -2.367188 2.785156 -2.25 2.140625 -2.25 L 1.1875 -2.25 L 1.1875 0 L 0.71875 0 L 0.71875 -5.171875 Z M 2.359375 -2.6875 C 2.765625 -2.6875 3.078125 -2.769531 3.296875 -2.9375 C 3.515625 -3.113281 3.625 -3.375 3.625 -3.71875 C 3.625 -4.40625 3.1875 -4.75 2.3125 -4.75 L 1.1875 -4.75 L 1.1875 -2.6875 Z M 2.359375 -2.6875 "/></g></g></g><g fill="#264e86" fill-opacity="1"><g transform="translate(91.809952, 134.322316)"><g><path d="M 2.53125 -5.171875 C 3.050781 -5.171875 3.457031 -5.054688 3.75 -4.828125 C 4.039062 -4.609375 4.1875 -4.273438 4.1875 -3.828125 C 4.1875 -3.554688 4.097656 -3.320312 3.921875 -3.125 C 3.742188 -2.925781 3.5 -2.789062 3.1875 -2.71875 L 3.1875 -2.703125 C 3.476562 -2.648438 3.691406 -2.519531 3.828125 -2.3125 C 3.972656 -2.113281 4.0625 -1.71875 4.09375 -1.125 C 4.125 -0.539062 4.203125 -0.164062 4.328125 0 L 3.78125 0 C 3.695312 -0.226562 3.632812 -0.609375 3.59375 -1.140625 C 3.5625 -1.679688 3.484375 -2.035156 3.359375 -2.203125 C 3.242188 -2.378906 2.96875 -2.46875 2.53125 -2.46875 L 1.203125 -2.46875 L 1.203125 0 L 0.734375 0 L 0.734375 -5.171875 Z M 2.296875 -2.890625 C 2.785156 -2.890625 3.132812 -2.960938 3.34375 -3.109375 C 3.5625 -3.265625 3.671875 -3.503906 3.671875 -3.828125 C 3.671875 -4.140625 3.578125 -4.367188 3.390625 -4.515625 C 3.203125 -4.671875 2.921875 -4.75 2.546875 -4.75 L 1.203125 -4.75 L 1.203125 -2.890625 Z M 2.296875 -2.890625 "/></g></g></g><g fill="#264e86" fill-opacity="1"><g transform="translate(96.588342, 134.322316)"><g><path d="M 5.09375 -2.59375 C 5.09375 -1.769531 4.890625 -1.113281 4.484375 -0.625 C 4.078125 -0.144531 3.515625 0.0976562 2.796875 0.109375 C 2.066406 0.109375 1.5 -0.128906 1.09375 -0.609375 C 0.695312 -1.097656 0.492188 -1.757812 0.484375 -2.59375 C 0.484375 -3.414062 0.6875 -4.066406 1.09375 -4.546875 C 1.5 -5.035156 2.066406 -5.28125 2.796875 -5.28125 C 3.515625 -5.28125 4.078125 -5.035156 4.484375 -4.546875 C 4.890625 -4.066406 5.09375 -3.414062 5.09375 -2.59375 Z M 2.796875 -0.328125 C 3.359375 -0.328125 3.796875 -0.535156 4.109375 -0.953125 C 4.429688 -1.367188 4.59375 -1.914062 4.59375 -2.59375 C 4.59375 -3.28125 4.429688 -3.828125 4.109375 -4.234375 C 3.785156 -4.648438 3.34375 -4.859375 2.78125 -4.859375 C 2.226562 -4.859375 1.789062 -4.648438 1.46875 -4.234375 C 1.15625 -3.828125 0.992188 -3.28125 0.984375 -2.59375 C 0.984375 -1.925781 1.140625 -1.382812 1.453125 -0.96875 C 1.765625 -0.550781 2.210938 -0.335938 2.796875 -0.328125 Z M 2.796875 -0.328125 "/></g></g></g><g fill="#264e86" fill-opacity="1"><g transform="translate(102.161938, 134.322316)"><g><path d="M 2.15625 -5.171875 C 2.8125 -5.171875 3.300781 -5.046875 3.625 -4.796875 C 3.957031 -4.554688 4.125 -4.195312 4.125 -3.71875 C 4.125 -3.226562 3.953125 -2.859375 3.609375 -2.609375 C 3.273438 -2.367188 2.785156 -2.25 2.140625 -2.25 L 1.1875 -2.25 L 1.1875 0 L 0.71875 0 L 0.71875 -5.171875 Z M 2.359375 -2.6875 C 2.765625 -2.6875 3.078125 -2.769531 3.296875 -2.9375 C 3.515625 -3.113281 3.625 -3.375 3.625 -3.71875 C 3.625 -4.40625 3.1875 -4.75 2.3125 -4.75 L 1.1875 -4.75 L 1.1875 -2.6875 Z M 2.359375 -2.6875 "/></g></g></g><g fill="#264e86" fill-opacity="1"><g transform="translate(106.539143, 134.322316)"><g><path d="M 3.8125 -5.171875 L 3.8125 -4.75 L 1.203125 -4.75 L 1.203125 -2.890625 L 3.703125 -2.890625 L 3.703125 -2.453125 L 1.203125 -2.453125 L 1.203125 -0.4375 L 3.921875 -0.4375 L 3.921875 0 L 0.734375 0 L 0.734375 -5.171875 Z M 3.8125 -5.171875 "/></g></g></g><g fill="#264e86" fill-opacity="1"><g transform="translate(110.916348, 134.322316)"><g><path d="M 2.53125 -5.171875 C 3.050781 -5.171875 3.457031 -5.054688 3.75 -4.828125 C 4.039062 -4.609375 4.1875 -4.273438 4.1875 -3.828125 C 4.1875 -3.554688 4.097656 -3.320312 3.921875 -3.125 C 3.742188 -2.925781 3.5 -2.789062 3.1875 -2.71875 L 3.1875 -2.703125 C 3.476562 -2.648438 3.691406 -2.519531 3.828125 -2.3125 C 3.972656 -2.113281 4.0625 -1.71875 4.09375 -1.125 C 4.125 -0.539062 4.203125 -0.164062 4.328125 0 L 3.78125 0 C 3.695312 -0.226562 3.632812 -0.609375 3.59375 -1.140625 C 3.5625 -1.679688 3.484375 -2.035156 3.359375 -2.203125 C 3.242188 -2.378906 2.96875 -2.46875 2.53125 -2.46875 L 1.203125 -2.46875 L 1.203125 0 L 0.734375 0 L 0.734375 -5.171875 Z M 2.296875 -2.890625 C 2.785156 -2.890625 3.132812 -2.960938 3.34375 -3.109375 C 3.5625 -3.265625 3.671875 -3.503906 3.671875 -3.828125 C 3.671875 -4.140625 3.578125 -4.367188 3.390625 -4.515625 C 3.203125 -4.671875 2.921875 -4.75 2.546875 -4.75 L 1.203125 -4.75 L 1.203125 -2.890625 Z M 2.296875 -2.890625 "/></g></g></g><g fill="#264e86" fill-opacity="1"><g transform="translate(115.694738, 134.322316)"><g><path d="M 3.890625 -5.171875 L 3.890625 -4.75 L 2.25 -4.75 L 2.234375 0 L 1.78125 0 L 1.765625 -4.75 L 0.09375 -4.75 L 0.09375 -5.171875 Z M 3.890625 -5.171875 "/></g></g></g><g fill="#264e86" fill-opacity="1"><g transform="translate(119.677929, 134.322316)"><g><path d="M 0.65625 -5.171875 L 2.234375 -2.671875 L 3.828125 -5.171875 L 4.328125 -5.171875 L 2.4375 -2.25 L 2.4375 0 L 1.96875 0 L 1.96875 -2.234375 L 0.0625 -5.171875 Z M 0.65625 -5.171875 "/></g></g></g><g fill="#264e86" fill-opacity="1"><g transform="translate(124.05514, 134.322316)"><g><path d="M 1.46875 -5.171875 L 0.953125 -3.703125 L 0.578125 -3.703125 L 0.890625 -5.171875 Z M 1.46875 -5.171875 "/></g></g></g><g fill="#264e86" fill-opacity="1"><g transform="translate(126.04673, 134.322316)"><g><path d="M 3.875 -4.046875 L 3.375 -4.046875 C 3.375 -4.304688 3.273438 -4.503906 3.078125 -4.640625 C 2.878906 -4.785156 2.601562 -4.859375 2.25 -4.859375 C 1.914062 -4.859375 1.628906 -4.773438 1.390625 -4.609375 C 1.160156 -4.441406 1.046875 -4.222656 1.046875 -3.953125 C 1.046875 -3.691406 1.132812 -3.476562 1.3125 -3.3125 C 1.5 -3.144531 1.789062 -3 2.1875 -2.875 L 2.671875 -2.71875 C 3.171875 -2.550781 3.507812 -2.359375 3.6875 -2.140625 C 3.875 -1.921875 3.96875 -1.660156 3.96875 -1.359375 C 3.96875 -0.835938 3.773438 -0.460938 3.390625 -0.234375 C 3.003906 -0.00390625 2.539062 0.109375 2 0.109375 C 1.519531 0.109375 1.132812 -0.0351562 0.84375 -0.328125 C 0.5625 -0.628906 0.421875 -0.96875 0.421875 -1.34375 L 0.921875 -1.34375 C 0.921875 -1.019531 1.023438 -0.769531 1.234375 -0.59375 C 1.453125 -0.425781 1.78125 -0.335938 2.21875 -0.328125 C 2.550781 -0.328125 2.84375 -0.414062 3.09375 -0.59375 C 3.34375 -0.78125 3.46875 -1.019531 3.46875 -1.3125 C 3.46875 -1.570312 3.378906 -1.773438 3.203125 -1.921875 C 3.035156 -2.078125 2.691406 -2.226562 2.171875 -2.375 C 1.722656 -2.5 1.335938 -2.679688 1.015625 -2.921875 C 0.691406 -3.160156 0.53125 -3.484375 0.53125 -3.890625 C 0.53125 -4.296875 0.691406 -4.628906 1.015625 -4.890625 C 1.335938 -5.148438 1.726562 -5.28125 2.1875 -5.28125 C 2.675781 -5.28125 3.066406 -5.171875 3.359375 -4.953125 C 3.660156 -4.742188 3.832031 -4.441406 3.875 -4.046875 Z M 3.875 -4.046875 "/></g></g></g><g fill="#264e86" fill-opacity="1"><g transform="translate(130.423929, 134.322316)"><g/></g></g><g fill="#264e86" fill-opacity="1"><g transform="translate(132.415518, 134.322316)"><g><path d="M 2.15625 -5.171875 C 2.8125 -5.171875 3.300781 -5.046875 3.625 -4.796875 C 3.957031 -4.554688 4.125 -4.195312 4.125 -3.71875 C 4.125 -3.226562 3.953125 -2.859375 3.609375 -2.609375 C 3.273438 -2.367188 2.785156 -2.25 2.140625 -2.25 L 1.1875 -2.25 L 1.1875 0 L 0.71875 0 L 0.71875 -5.171875 Z M 2.359375 -2.6875 C 2.765625 -2.6875 3.078125 -2.769531 3.296875 -2.9375 C 3.515625 -3.113281 3.625 -3.375 3.625 -3.71875 C 3.625 -4.40625 3.1875 -4.75 2.3125 -4.75 L 1.1875 -4.75 L 1.1875 -2.6875 Z M 2.359375 -2.6875 "/></g></g></g><g fill="#264e86" fill-opacity="1"><g transform="translate(136.792717, 134.322316)"><g><path d="M 5.09375 -2.59375 C 5.09375 -1.769531 4.890625 -1.113281 4.484375 -0.625 C 4.078125 -0.144531 3.515625 0.0976562 2.796875 0.109375 C 2.066406 0.109375 1.5 -0.128906 1.09375 -0.609375 C 0.695312 -1.097656 0.492188 -1.757812 0.484375 -2.59375 C 0.484375 -3.414062 0.6875 -4.066406 1.09375 -4.546875 C 1.5 -5.035156 2.066406 -5.28125 2.796875 -5.28125 C 3.515625 -5.28125 4.078125 -5.035156 4.484375 -4.546875 C 4.890625 -4.066406 5.09375 -3.414062 5.09375 -2.59375 Z M 2.796875 -0.328125 C 3.359375 -0.328125 3.796875 -0.535156 4.109375 -0.953125 C 4.429688 -1.367188 4.59375 -1.914062 4.59375 -2.59375 C 4.59375 -3.28125 4.429688 -3.828125 4.109375 -4.234375 C 3.785156 -4.648438 3.34375 -4.859375 2.78125 -4.859375 C 2.226562 -4.859375 1.789062 -4.648438 1.46875 -4.234375 C 1.15625 -3.828125 0.992188 -3.28125 0.984375 -2.59375 C 0.984375 -1.925781 1.140625 -1.382812 1.453125 -0.96875 C 1.765625 -0.550781 2.210938 -0.335938 2.796875 -0.328125 Z M 2.796875 -0.328125 "/></g></g></g><g fill="#264e86" fill-opacity="1"><g transform="translate(142.366319, 134.322316)"><g><path d="M 3.890625 -5.171875 L 3.890625 -4.75 L 2.25 -4.75 L 2.234375 0 L 1.78125 0 L 1.765625 -4.75 L 0.09375 -4.75 L 0.09375 -5.171875 Z M 3.890625 -5.171875 "/></g></g></g><g fill="#264e86" fill-opacity="1"><g transform="translate(146.349498, 134.322316)"><g><path d="M 3.8125 -5.171875 L 3.8125 -4.75 L 1.203125 -4.75 L 1.203125 -2.890625 L 3.703125 -2.890625 L 3.703125 -2.453125 L 1.203125 -2.453125 L 1.203125 -0.4375 L 3.921875 -0.4375 L 3.921875 0 L 0.734375 0 L 0.734375 -5.171875 Z M 3.8125 -5.171875 "/></g></g></g><g fill="#264e86" fill-opacity="1"><g transform="translate(150.726709, 134.322316)"><g><path d="M 1.1875 -5.171875 L 4.046875 -0.625 L 4.0625 -0.625 L 4.0625 -5.171875 L 4.53125 -5.171875 L 4.53125 0 L 3.9375 0 L 1.140625 -4.46875 L 1.125 -4.46875 L 1.125 0 L 0.65625 0 L 0.65625 -5.171875 Z M 1.1875 -5.171875 "/></g></g></g><g fill="#264e86" fill-opacity="1"><g transform="translate(155.899119, 134.322316)"><g><path d="M 3.890625 -5.171875 L 3.890625 -4.75 L 2.25 -4.75 L 2.234375 0 L 1.78125 0 L 1.765625 -4.75 L 0.09375 -4.75 L 0.09375 -5.171875 Z M 3.890625 -5.171875 "/></g></g></g><g fill="#264e86" fill-opacity="1"><g transform="translate(159.88231, 134.322316)"><g><path d="M 1.234375 -5.203125 L 1.234375 0 L 0.765625 0 L 0.765625 -5.203125 Z M 1.234375 -5.203125 "/></g></g></g><g fill="#264e86" fill-opacity="1"><g transform="translate(161.8739, 134.322316)"><g><path d="M 2.65625 -5.171875 L 4.71875 0 L 4.21875 0 L 3.671875 -1.40625 L 1.09375 -1.40625 L 0.546875 0 L 0.0625 0 L 2.109375 -5.171875 Z M 1.234375 -1.828125 L 3.5 -1.828125 L 2.375 -4.75 Z M 1.234375 -1.828125 "/></g></g></g><g fill="#264e86" fill-opacity="1"><g transform="translate(166.65229, 134.322316)"><g><path d="M 1.1875 -5.171875 L 1.1875 -0.4375 L 3.78125 -0.4375 L 3.78125 0 L 0.71875 0 L 0.71875 -5.171875 Z M 1.1875 -5.171875 "/></g></g></g></svg>