<svg xmlns="http://www.w3.org/2000/svg" xmlns:xlink="http://www.w3.org/1999/xlink" width="1200" zoomAndPan="magnify" viewBox="0 0 900 472.499986" height="630" preserveAspectRatio="xMidYMid meet" version="1.0"><defs><g/><clipPath id="c826174241"><path d="M 273.523438 12.316406 L 610.261719 12.316406 L 610.261719 288.921875 L 273.523438 288.921875 Z M 273.523438 12.316406 " clip-rule="nonzero"/></clipPath></defs><g clip-path="url(#c826174241)"><path fill="#f5793b" d="M 346.609375 264.867188 L 346.609375 110.085938 C 347.753906 109.476562 348.820312 108.792969 349.960938 108.183594 C 359.097656 103.007812 368.15625 97.90625 377.292969 92.726562 L 380.566406 90.902344 L 383.765625 92.726562 L 402.1875 103.234375 L 402.1875 30.449219 L 405.539062 28.546875 L 430.816406 14.234375 L 434.011719 12.40625 L 437.210938 14.234375 L 490.425781 44.382812 L 493.777344 46.285156 L 493.777344 96.304688 L 500.097656 92.726562 L 503.292969 90.902344 L 506.492188 92.726562 L 533.824219 108.183594 L 537.175781 110.085938 L 537.175781 264.867188 C 571.128906 270.578125 597.242188 279.257812 610.261719 289.457031 C 569.988281 277.808594 509.539062 270.425781 441.855469 270.425781 C 374.171875 270.425781 313.796875 277.808594 273.523438 289.457031 C 286.539062 279.179688 312.65625 270.5 346.609375 264.867188 Z M 503.371094 260.375 C 503.371094 213.859375 503.371094 150.667969 503.371094 105.898438 C 480.226562 118.996094 457.15625 132.089844 434.011719 145.109375 L 434.011719 257.558594 C 436.601562 257.558594 439.265625 257.480469 441.929688 257.480469 C 463.476562 257.480469 484.183594 258.546875 503.371094 260.375 Z M 402.113281 258.699219 L 402.113281 118.308594 C 394.878906 114.199219 387.648438 110.085938 380.414062 105.976562 L 380.414062 260.375 C 387.496094 259.691406 394.726562 259.15625 402.113281 258.699219 Z M 480.683594 53.824219 C 465.152344 44.992188 449.542969 36.238281 434.011719 27.40625 L 434.011719 130.109375 C 449.542969 121.277344 465.152344 112.523438 480.683594 103.691406 Z M 480.683594 53.824219 " fill-opacity="1" fill-rule="evenodd"/></g><g fill="#264e86" fill-opacity="1"><g transform="translate(107.743379, 388.755478)"><g><path d="M 24.421875 -79.53125 L 24.421875 -47.734375 L 54.453125 -47.734375 L 54.453125 -79.53125 L 71.71875 -79.53125 L 71.71875 0 L 54.671875 0 L 54.671875 -34.875 L 24.421875 -34.875 L 24.421875 0 L 7.375 0 L 7.375 -79.53125 Z M 24.421875 -79.53125 "/></g></g></g><g fill="#264e86" fill-opacity="1"><g transform="translate(187.158463, 388.755478)"><g><path d="M 61.375 -79.53125 L 61.375 -66.546875 L 25.1875 -66.546875 L 25.1875 -47.625 L 59.0625 -47.625 L 59.0625 -34.65625 L 25.1875 -34.65625 L 25.1875 -13.203125 L 62.59375 -13.203125 L 62.59375 0 L 8.140625 0 L 8.140625 -79.53125 Z M 61.375 -79.53125 "/></g></g></g><g fill="#264e86" fill-opacity="1"><g transform="translate(254.364307, 388.755478)"><g><path d="M 24.96875 -79.421875 L 24.96875 -13.53125 L 59.0625 -13.53125 L 59.0625 0 L 7.59375 0 L 7.59375 -79.421875 Z M 24.96875 -79.421875 "/></g></g></g><g fill="#264e86" fill-opacity="1"><g transform="translate(315.52052, 388.755478)"><g><path d="M 23.65625 -79.75 L 23.65625 0 L 6.59375 0 L 6.59375 -79.75 Z M 23.65625 -79.75 "/></g></g></g><g fill="#264e86" fill-opacity="1"><g transform="translate(346.09864, 388.755478)"><g><path d="M 80.953125 -40.484375 C 80.953125 -27.429688 77.578125 -17.085938 70.828125 -9.453125 C 64.085938 -1.828125 54.78125 1.984375 42.90625 1.984375 C 30.875 1.984375 21.503906 -1.585938 14.796875 -8.734375 C 8.085938 -15.890625 4.734375 -25.882812 4.734375 -38.71875 C 4.734375 -51.914062 8.066406 -62.289062 14.734375 -69.84375 C 21.410156 -77.40625 30.800781 -81.1875 42.90625 -81.1875 C 55.363281 -81.1875 64.816406 -77.40625 71.265625 -69.84375 C 77.722656 -62.289062 80.953125 -52.503906 80.953125 -40.484375 Z M 42.5625 -10.5625 C 49.820312 -10.5625 55.066406 -13.273438 58.296875 -18.703125 C 61.523438 -24.128906 63.140625 -31.535156 63.140625 -40.921875 C 63.140625 -49.429688 61.394531 -56.234375 57.90625 -61.328125 C 54.425781 -66.421875 49.5 -68.96875 43.125 -68.96875 C 36.375 -68.96875 31.253906 -66.457031 27.765625 -61.4375 C 24.285156 -56.414062 22.546875 -49.285156 22.546875 -40.046875 C 22.546875 -30.140625 24.269531 -22.75 27.71875 -17.875 C 31.164062 -13 36.113281 -10.5625 42.5625 -10.5625 Z M 42.5625 -10.5625 "/></g></g></g><g fill="#264e86" fill-opacity="1"><g transform="translate(431.673337, 388.755478)"><g><path d="M 19.90625 -79.203125 L 40.703125 -16.828125 L 61.59375 -79.203125 L 78.4375 -79.203125 L 49.171875 0 L 30.578125 0 L 1.3125 -79.203125 Z M 19.90625 -79.203125 "/></g></g></g><g fill="#264e86" fill-opacity="1"><g transform="translate(511.088421, 388.755478)"><g><path d="M 23.65625 -79.75 L 23.65625 0 L 6.59375 0 L 6.59375 -79.75 Z M 23.65625 -79.75 "/></g></g></g><g fill="#264e86" fill-opacity="1"><g transform="translate(541.666515, 388.755478)"><g><path d="M 61.375 -79.53125 L 61.375 -66.546875 L 25.1875 -66.546875 L 25.1875 -47.625 L 59.0625 -47.625 L 59.0625 -34.65625 L 25.1875 -34.65625 L 25.1875 -13.203125 L 62.59375 -13.203125 L 62.59375 0 L 8.140625 0 L 8.140625 -79.53125 Z M 61.375 -79.53125 "/></g></g></g><g fill="#264e86" fill-opacity="1"><g transform="translate(608.872332, 388.755478)"><g><path d="M 19.25 -79.203125 L 31.5625 -19.796875 L 47.078125 -79.203125 L 66.328125 -79.203125 L 80.296875 -19.796875 L 93.171875 -79.203125 L 109.453125 -79.203125 L 89.203125 0.21875 L 70.296875 0.21875 L 55.875 -60.5 L 40.375 0.21875 L 21.015625 0.21875 L 1.65625 -79.203125 Z M 19.25 -79.203125 "/></g></g></g><g fill="#264e86" fill-opacity="1"><g transform="translate(718.865536, 388.755478)"><g><path d="M 66.328125 -57.3125 L 66.328125 -56.765625 L 49.9375 -56.765625 L 49.9375 -57.3125 C 49.570312 -60.976562 48.304688 -63.816406 46.140625 -65.828125 C 43.984375 -67.847656 40.957031 -68.859375 37.0625 -68.859375 C 33.25 -68.859375 30.113281 -67.921875 27.65625 -66.046875 C 25.207031 -64.179688 23.984375 -61.523438 23.984375 -58.078125 C 23.984375 -54.265625 25.742188 -51.625 29.265625 -50.15625 C 32.785156 -48.6875 37.914062 -47.1875 44.65625 -45.65625 C 53.3125 -43.75 59.453125 -41.050781 63.078125 -37.5625 C 66.710938 -34.082031 68.53125 -29.554688 68.53125 -23.984375 C 68.53125 -16.203125 65.410156 -9.945312 59.171875 -5.21875 C 52.941406 -0.488281 44.878906 1.875 34.984375 1.875 C 24.273438 1.875 16.40625 -0.359375 11.375 -4.828125 C 6.351562 -9.304688 3.84375 -16.164062 3.84375 -25.40625 L 21.234375 -25.40625 L 21.234375 -24.75 C 21.234375 -19.757812 22.476562 -16.109375 24.96875 -13.796875 C 27.457031 -11.492188 31.015625 -10.34375 35.640625 -10.34375 C 39.890625 -10.34375 43.460938 -11.296875 46.359375 -13.203125 C 49.253906 -15.109375 50.703125 -17.894531 50.703125 -21.5625 C 50.703125 -23.832031 50.039062 -25.703125 48.71875 -27.171875 C 47.40625 -28.640625 43.226562 -30.253906 36.1875 -32.015625 C 23.789062 -35.015625 15.722656 -38.4375 11.984375 -42.28125 C 8.242188 -46.132812 6.375 -50.738281 6.375 -56.09375 C 6.375 -63.800781 9.175781 -69.851562 14.78125 -74.25 C 20.394531 -78.644531 28.082031 -80.84375 37.84375 -80.84375 C 46.644531 -80.84375 53.59375 -78.769531 58.6875 -74.625 C 63.78125 -70.488281 66.328125 -64.71875 66.328125 -57.3125 Z M 66.328125 -57.3125 "/></g></g></g><g fill="#264e86" fill-opacity="1"><g transform="translate(122.694981, 445.991091)"><g><path d="M 5.40625 -22.78125 L 5.40625 0 L 3.359375 0 L 3.359375 -22.78125 Z M 5.40625 -22.78125 "/></g></g></g><g fill="#264e86" fill-opacity="1"><g transform="translate(131.427395, 445.991091)"><g><path d="M 5.1875 -22.6875 L 5.1875 -1.890625 L 16.59375 -1.890625 L 16.59375 0 L 3.140625 0 L 3.140625 -22.6875 Z M 5.1875 -22.6875 "/></g></g></g><g fill="#264e86" fill-opacity="1"><g transform="translate(148.89225, 445.991091)"><g><path d="M 5.1875 -22.6875 L 5.1875 -1.890625 L 16.59375 -1.890625 L 16.59375 0 L 3.140625 0 L 3.140625 -22.6875 Z M 5.1875 -22.6875 "/></g></g></g><g fill="#264e86" fill-opacity="1"><g transform="translate(166.357104, 445.991091)"><g><path d="M 5.09375 -22.6875 L 5.09375 -8.265625 C 5.09375 -6.210938 5.65625 -4.554688 6.78125 -3.296875 C 7.914062 -2.035156 9.4375 -1.40625 11.34375 -1.40625 C 13.289062 -1.40625 14.816406 -2.03125 15.921875 -3.28125 C 17.035156 -4.53125 17.59375 -6.222656 17.59375 -8.359375 L 17.59375 -22.6875 L 19.640625 -22.6875 L 19.640625 -8.234375 C 19.640625 -5.566406 18.914062 -3.445312 17.46875 -1.875 C 16.019531 -0.3125 13.976562 0.46875 11.34375 0.46875 C 8.726562 0.46875 6.691406 -0.300781 5.234375 -1.84375 C 3.773438 -3.394531 3.046875 -5.503906 3.046875 -8.171875 L 3.046875 -22.6875 Z M 5.09375 -22.6875 "/></g></g></g><g fill="#264e86" fill-opacity="1"><g transform="translate(189.036286, 445.991091)"><g><path d="M 6.3125 -22.6875 L 14.828125 -2.921875 L 23.53125 -22.6875 L 26.640625 -22.6875 L 26.640625 0 L 24.609375 0 L 24.609375 -20.953125 L 24.546875 -20.953125 L 15.875 0 L 13.828125 0 L 5.15625 -20.859375 L 5.09375 -20.859375 L 5.09375 0 L 3.046875 0 L 3.046875 -22.6875 Z M 6.3125 -22.6875 "/></g></g></g><g fill="#264e86" fill-opacity="1"><g transform="translate(218.688852, 445.991091)"><g><path d="M 5.40625 -22.78125 L 5.40625 0 L 3.359375 0 L 3.359375 -22.78125 Z M 5.40625 -22.78125 "/></g></g></g><g fill="#264e86" fill-opacity="1"><g transform="translate(227.421266, 445.991091)"><g><path d="M 5.21875 -22.6875 L 17.71875 -2.734375 L 17.78125 -2.734375 L 17.78125 -22.6875 L 19.828125 -22.6875 L 19.828125 0 L 17.25 0 L 5 -19.609375 L 4.9375 -19.609375 L 4.9375 0 L 2.890625 0 L 2.890625 -22.6875 Z M 5.21875 -22.6875 "/></g></g></g><g fill="#264e86" fill-opacity="1"><g transform="translate(250.100449, 445.991091)"><g><path d="M 11.65625 -22.6875 L 20.703125 0 L 18.46875 0 L 16.0625 -6.125 L 4.78125 -6.125 L 2.390625 0 L 0.28125 0 L 9.265625 -22.6875 Z M 5.4375 -8.015625 L 15.328125 -8.015625 L 10.4375 -20.796875 Z M 5.4375 -8.015625 "/></g></g></g><g fill="#264e86" fill-opacity="1"><g transform="translate(271.051995, 445.991091)"><g><path d="M 17.03125 -22.6875 L 17.03125 -20.796875 L 9.828125 -20.796875 L 9.796875 0 L 7.796875 0 L 7.765625 -20.796875 L 0.4375 -20.796875 L 0.4375 -22.6875 Z M 17.03125 -22.6875 "/></g></g></g><g fill="#264e86" fill-opacity="1"><g transform="translate(288.516849, 445.991091)"><g><path d="M 16.6875 -22.6875 L 16.6875 -20.796875 L 5.25 -20.796875 L 5.25 -12.65625 L 16.25 -12.65625 L 16.25 -10.78125 L 5.25 -10.78125 L 5.25 -1.890625 L 17.15625 -1.890625 L 17.15625 0 L 3.203125 0 L 3.203125 -22.6875 Z M 16.6875 -22.6875 "/></g></g></g><g fill="#264e86" fill-opacity="1"><g transform="translate(307.70934, 445.991091)"><g/></g></g><g fill="#264e86" fill-opacity="1"><g transform="translate(316.441754, 445.991091)"><g><path d="M 2.859375 -22.6875 L 9.796875 -11.71875 L 16.75 -22.6875 L 18.953125 -22.6875 L 10.65625 -9.859375 L 10.65625 0 L 8.609375 0 L 8.609375 -9.796875 L 0.25 -22.6875 Z M 2.859375 -22.6875 "/></g></g></g><g fill="#264e86" fill-opacity="1"><g transform="translate(335.634245, 445.991091)"><g><path d="M 22.34375 -11.34375 C 22.34375 -7.738281 21.453125 -4.875 19.671875 -2.75 C 17.890625 -0.625 15.40625 0.445312 12.21875 0.46875 C 9.039062 0.46875 6.570312 -0.59375 4.8125 -2.71875 C 3.050781 -4.84375 2.148438 -7.71875 2.109375 -11.34375 C 2.109375 -14.96875 3 -17.835938 4.78125 -19.953125 C 6.5625 -22.066406 9.039062 -23.132812 12.21875 -23.15625 C 15.40625 -23.15625 17.882812 -22.085938 19.65625 -19.953125 C 21.425781 -17.816406 22.320312 -14.945312 22.34375 -11.34375 Z M 12.21875 -1.40625 C 14.695312 -1.40625 16.632812 -2.328125 18.03125 -4.171875 C 19.4375 -6.015625 20.140625 -8.40625 20.140625 -11.34375 C 20.140625 -14.363281 19.429688 -16.769531 18.015625 -18.5625 C 16.609375 -20.363281 14.664062 -21.265625 12.1875 -21.265625 C 9.78125 -21.265625 7.875 -20.363281 6.46875 -18.5625 C 5.070312 -16.769531 4.351562 -14.363281 4.3125 -11.34375 C 4.3125 -8.445312 4.992188 -6.078125 6.359375 -4.234375 C 7.734375 -2.398438 9.6875 -1.457031 12.21875 -1.40625 Z M 12.21875 -1.40625 "/></g></g></g><g fill="#264e86" fill-opacity="1"><g transform="translate(360.072483, 445.991091)"><g><path d="M 5.09375 -22.6875 L 5.09375 -8.265625 C 5.09375 -6.210938 5.65625 -4.554688 6.78125 -3.296875 C 7.914062 -2.035156 9.4375 -1.40625 11.34375 -1.40625 C 13.289062 -1.40625 14.816406 -2.03125 15.921875 -3.28125 C 17.035156 -4.53125 17.59375 -6.222656 17.59375 -8.359375 L 17.59375 -22.6875 L 19.640625 -22.6875 L 19.640625 -8.234375 C 19.640625 -5.566406 18.914062 -3.445312 17.46875 -1.875 C 16.019531 -0.3125 13.976562 0.46875 11.34375 0.46875 C 8.726562 0.46875 6.691406 -0.300781 5.234375 -1.84375 C 3.773438 -3.394531 3.046875 -5.503906 3.046875 -8.171875 L 3.046875 -22.6875 Z M 5.09375 -22.6875 "/></g></g></g><g fill="#264e86" fill-opacity="1"><g transform="translate(382.751665, 445.991091)"><g><path d="M 11.125 -22.6875 C 13.382812 -22.6875 15.144531 -22.1875 16.40625 -21.1875 C 17.675781 -20.195312 18.3125 -18.726562 18.3125 -16.78125 C 18.3125 -15.582031 17.929688 -14.550781 17.171875 -13.6875 C 16.410156 -12.832031 15.335938 -12.226562 13.953125 -11.875 L 13.953125 -11.8125 C 15.253906 -11.601562 16.207031 -11.046875 16.8125 -10.140625 C 17.414062 -9.242188 17.785156 -7.507812 17.921875 -4.9375 C 18.054688 -2.375 18.398438 -0.726562 18.953125 0 L 16.59375 0 C 16.195312 -1.007812 15.914062 -2.691406 15.75 -5.046875 C 15.59375 -7.398438 15.253906 -8.945312 14.734375 -9.6875 C 14.210938 -10.4375 13.007812 -10.8125 11.125 -10.8125 L 5.28125 -10.8125 L 5.28125 0 L 3.234375 0 L 3.234375 -22.6875 Z M 10.0625 -12.6875 C 12.21875 -12.6875 13.765625 -13.007812 14.703125 -13.65625 C 15.648438 -14.3125 16.125 -15.34375 16.125 -16.75 C 16.125 -18.15625 15.707031 -19.179688 14.875 -19.828125 C 14.050781 -20.472656 12.820312 -20.796875 11.1875 -20.796875 L 5.28125 -20.796875 L 5.28125 -12.6875 Z M 10.0625 -12.6875 "/></g></g></g><g fill="#264e86" fill-opacity="1"><g transform="translate(403.703211, 445.991091)"><g/></g></g><g fill="#264e86" fill-opacity="1"><g transform="translate(412.435626, 445.991091)"><g><path d="M 9.421875 -22.6875 C 12.296875 -22.6875 14.457031 -22.140625 15.90625 -21.046875 C 17.363281 -19.960938 18.09375 -18.375 18.09375 -16.28125 C 18.09375 -14.144531 17.347656 -12.539062 15.859375 -11.46875 C 14.378906 -10.394531 12.210938 -9.859375 9.359375 -9.859375 L 5.1875 -9.859375 L 5.1875 0 L 3.140625 0 L 3.140625 -22.6875 Z M 10.3125 -11.75 C 12.113281 -11.75 13.492188 -12.125 14.453125 -12.875 C 15.421875 -13.632812 15.90625 -14.769531 15.90625 -16.28125 C 15.90625 -19.289062 13.976562 -20.796875 10.125 -20.796875 L 5.1875 -20.796875 L 5.1875 -11.75 Z M 10.3125 -11.75 "/></g></g></g><g fill="#264e86" fill-opacity="1"><g transform="translate(431.628116, 445.991091)"><g><path d="M 11.125 -22.6875 C 13.382812 -22.6875 15.144531 -22.1875 16.40625 -21.1875 C 17.675781 -20.195312 18.3125 -18.726562 18.3125 -16.78125 C 18.3125 -15.582031 17.929688 -14.550781 17.171875 -13.6875 C 16.410156 -12.832031 15.335938 -12.226562 13.953125 -11.875 L 13.953125 -11.8125 C 15.253906 -11.601562 16.207031 -11.046875 16.8125 -10.140625 C 17.414062 -9.242188 17.785156 -7.507812 17.921875 -4.9375 C 18.054688 -2.375 18.398438 -0.726562 18.953125 0 L 16.59375 0 C 16.195312 -1.007812 15.914062 -2.691406 15.75 -5.046875 C 15.59375 -7.398438 15.253906 -8.945312 14.734375 -9.6875 C 14.210938 -10.4375 13.007812 -10.8125 11.125 -10.8125 L 5.28125 -10.8125 L 5.28125 0 L 3.234375 0 L 3.234375 -22.6875 Z M 10.0625 -12.6875 C 12.21875 -12.6875 13.765625 -13.007812 14.703125 -13.65625 C 15.648438 -14.3125 16.125 -15.34375 16.125 -16.75 C 16.125 -18.15625 15.707031 -19.179688 14.875 -19.828125 C 14.050781 -20.472656 12.820312 -20.796875 11.1875 -20.796875 L 5.28125 -20.796875 L 5.28125 -12.6875 Z M 10.0625 -12.6875 "/></g></g></g><g fill="#264e86" fill-opacity="1"><g transform="translate(452.579663, 445.991091)"><g><path d="M 22.34375 -11.34375 C 22.34375 -7.738281 21.453125 -4.875 19.671875 -2.75 C 17.890625 -0.625 15.40625 0.445312 12.21875 0.46875 C 9.039062 0.46875 6.570312 -0.59375 4.8125 -2.71875 C 3.050781 -4.84375 2.148438 -7.71875 2.109375 -11.34375 C 2.109375 -14.96875 3 -17.835938 4.78125 -19.953125 C 6.5625 -22.066406 9.039062 -23.132812 12.21875 -23.15625 C 15.40625 -23.15625 17.882812 -22.085938 19.65625 -19.953125 C 21.425781 -17.816406 22.320312 -14.945312 22.34375 -11.34375 Z M 12.21875 -1.40625 C 14.695312 -1.40625 16.632812 -2.328125 18.03125 -4.171875 C 19.4375 -6.015625 20.140625 -8.40625 20.140625 -11.34375 C 20.140625 -14.363281 19.429688 -16.769531 18.015625 -18.5625 C 16.609375 -20.363281 14.664062 -21.265625 12.1875 -21.265625 C 9.78125 -21.265625 7.875 -20.363281 6.46875 -18.5625 C 5.070312 -16.769531 4.351562 -14.363281 4.3125 -11.34375 C 4.3125 -8.445312 4.992188 -6.078125 6.359375 -4.234375 C 7.734375 -2.398438 9.6875 -1.457031 12.21875 -1.40625 Z M 12.21875 -1.40625 "/></g></g></g><g fill="#264e86" fill-opacity="1"><g transform="translate(477.017901, 445.991091)"><g><path d="M 9.421875 -22.6875 C 12.296875 -22.6875 14.457031 -22.140625 15.90625 -21.046875 C 17.363281 -19.960938 18.09375 -18.375 18.09375 -16.28125 C 18.09375 -14.144531 17.347656 -12.539062 15.859375 -11.46875 C 14.378906 -10.394531 12.210938 -9.859375 9.359375 -9.859375 L 5.1875 -9.859375 L 5.1875 0 L 3.140625 0 L 3.140625 -22.6875 Z M 10.3125 -11.75 C 12.113281 -11.75 13.492188 -12.125 14.453125 -12.875 C 15.421875 -13.632812 15.90625 -14.769531 15.90625 -16.28125 C 15.90625 -19.289062 13.976562 -20.796875 10.125 -20.796875 L 5.1875 -20.796875 L 5.1875 -11.75 Z M 10.3125 -11.75 "/></g></g></g><g fill="#264e86" fill-opacity="1"><g transform="translate(496.210391, 445.991091)"><g><path d="M 16.6875 -22.6875 L 16.6875 -20.796875 L 5.25 -20.796875 L 5.25 -12.65625 L 16.25 -12.65625 L 16.25 -10.78125 L 5.25 -10.78125 L 5.25 -1.890625 L 17.15625 -1.890625 L 17.15625 0 L 3.203125 0 L 3.203125 -22.6875 Z M 16.6875 -22.6875 "/></g></g></g><g fill="#264e86" fill-opacity="1"><g transform="translate(515.402882, 445.991091)"><g><path d="M 11.125 -22.6875 C 13.382812 -22.6875 15.144531 -22.1875 16.40625 -21.1875 C 17.675781 -20.195312 18.3125 -18.726562 18.3125 -16.78125 C 18.3125 -15.582031 17.929688 -14.550781 17.171875 -13.6875 C 16.410156 -12.832031 15.335938 -12.226562 13.953125 -11.875 L 13.953125 -11.8125 C 15.253906 -11.601562 16.207031 -11.046875 16.8125 -10.140625 C 17.414062 -9.242188 17.785156 -7.507812 17.921875 -4.9375 C 18.054688 -2.375 18.398438 -0.726562 18.953125 0 L 16.59375 0 C 16.195312 -1.007812 15.914062 -2.691406 15.75 -5.046875 C 15.59375 -7.398438 15.253906 -8.945312 14.734375 -9.6875 C 14.210938 -10.4375 13.007812 -10.8125 11.125 -10.8125 L 5.28125 -10.8125 L 5.28125 0 L 3.234375 0 L 3.234375 -22.6875 Z M 10.0625 -12.6875 C 12.21875 -12.6875 13.765625 -13.007812 14.703125 -13.65625 C 15.648438 -14.3125 16.125 -15.34375 16.125 -16.75 C 16.125 -18.15625 15.707031 -19.179688 14.875 -19.828125 C 14.050781 -20.472656 12.820312 -20.796875 11.1875 -20.796875 L 5.28125 -20.796875 L 5.28125 -12.6875 Z M 10.0625 -12.6875 "/></g></g></g><g fill="#264e86" fill-opacity="1"><g transform="translate(536.354428, 445.991091)"><g><path d="M 17.03125 -22.6875 L 17.03125 -20.796875 L 9.828125 -20.796875 L 9.796875 0 L 7.796875 0 L 7.765625 -20.796875 L 0.4375 -20.796875 L 0.4375 -22.6875 Z M 17.03125 -22.6875 "/></g></g></g><g fill="#264e86" fill-opacity="1"><g transform="translate(553.819308, 445.991091)"><g><path d="M 2.859375 -22.6875 L 9.796875 -11.71875 L 16.75 -22.6875 L 18.953125 -22.6875 L 10.65625 -9.859375 L 10.65625 0 L 8.609375 0 L 8.609375 -9.796875 L 0.25 -22.6875 Z M 2.859375 -22.6875 "/></g></g></g><g fill="#264e86" fill-opacity="1"><g transform="translate(573.011824, 445.991091)"><g><path d="M 6.4375 -22.6875 L 4.171875 -16.25 L 2.546875 -16.25 L 3.890625 -22.6875 Z M 6.4375 -22.6875 "/></g></g></g><g fill="#264e86" fill-opacity="1"><g transform="translate(581.744239, 445.991091)"><g><path d="M 16.96875 -17.75 L 14.765625 -17.75 C 14.765625 -18.882812 14.332031 -19.753906 13.46875 -20.359375 C 12.613281 -20.960938 11.398438 -21.265625 9.828125 -21.265625 C 8.367188 -21.265625 7.125 -20.898438 6.09375 -20.171875 C 5.070312 -19.441406 4.5625 -18.488281 4.5625 -17.3125 C 4.5625 -16.15625 4.960938 -15.222656 5.765625 -14.515625 C 6.566406 -13.804688 7.847656 -13.164062 9.609375 -12.59375 L 11.71875 -11.90625 C 13.914062 -11.195312 15.40625 -10.351562 16.1875 -9.375 C 16.976562 -8.40625 17.375 -7.269531 17.375 -5.96875 C 17.375 -3.6875 16.535156 -2.039062 14.859375 -1.03125 C 13.179688 -0.03125 11.148438 0.46875 8.765625 0.46875 C 6.648438 0.46875 4.96875 -0.179688 3.71875 -1.484375 C 2.476562 -2.796875 1.847656 -4.269531 1.828125 -5.90625 L 4.015625 -5.90625 C 4.015625 -4.457031 4.476562 -3.359375 5.40625 -2.609375 C 6.34375 -1.859375 7.773438 -1.457031 9.703125 -1.40625 C 11.171875 -1.40625 12.445312 -1.804688 13.53125 -2.609375 C 14.625 -3.421875 15.171875 -4.476562 15.171875 -5.78125 C 15.171875 -6.914062 14.796875 -7.804688 14.046875 -8.453125 C 13.296875 -9.097656 11.773438 -9.757812 9.484375 -10.4375 C 7.535156 -10.957031 5.859375 -11.738281 4.453125 -12.78125 C 3.054688 -13.832031 2.359375 -15.25 2.359375 -17.03125 C 2.359375 -18.832031 3.0625 -20.300781 4.46875 -21.4375 C 5.882812 -22.582031 7.597656 -23.15625 9.609375 -23.15625 C 11.742188 -23.15625 13.457031 -22.679688 14.75 -21.734375 C 16.039062 -20.796875 16.78125 -19.46875 16.96875 -17.75 Z M 16.96875 -17.75 "/></g></g></g><g fill="#264e86" fill-opacity="1"><g transform="translate(600.936703, 445.991091)"><g/></g></g><g fill="#264e86" fill-opacity="1"><g transform="translate(609.669118, 445.991091)"><g><path d="M 9.421875 -22.6875 C 12.296875 -22.6875 14.457031 -22.140625 15.90625 -21.046875 C 17.363281 -19.960938 18.09375 -18.375 18.09375 -16.28125 C 18.09375 -14.144531 17.347656 -12.539062 15.859375 -11.46875 C 14.378906 -10.394531 12.210938 -9.859375 9.359375 -9.859375 L 5.1875 -9.859375 L 5.1875 0 L 3.140625 0 L 3.140625 -22.6875 Z M 10.3125 -11.75 C 12.113281 -11.75 13.492188 -12.125 14.453125 -12.875 C 15.421875 -13.632812 15.90625 -14.769531 15.90625 -16.28125 C 15.90625 -19.289062 13.976562 -20.796875 10.125 -20.796875 L 5.1875 -20.796875 L 5.1875 -11.75 Z M 10.3125 -11.75 "/></g></g></g><g fill="#264e86" fill-opacity="1"><g transform="translate(628.861582, 445.991091)"><g><path d="M 22.34375 -11.34375 C 22.34375 -7.738281 21.453125 -4.875 19.671875 -2.75 C 17.890625 -0.625 15.40625 0.445312 12.21875 0.46875 C 9.039062 0.46875 6.570312 -0.59375 4.8125 -2.71875 C 3.050781 -4.84375 2.148438 -7.71875 2.109375 -11.34375 C 2.109375 -14.96875 3 -17.835938 4.78125 -19.953125 C 6.5625 -22.066406 9.039062 -23.132812 12.21875 -23.15625 C 15.40625 -23.15625 17.882812 -22.085938 19.65625 -19.953125 C 21.425781 -17.816406 22.320312 -14.945312 22.34375 -11.34375 Z M 12.21875 -1.40625 C 14.695312 -1.40625 16.632812 -2.328125 18.03125 -4.171875 C 19.4375 -6.015625 20.140625 -8.40625 20.140625 -11.34375 C 20.140625 -14.363281 19.429688 -16.769531 18.015625 -18.5625 C 16.609375 -20.363281 14.664062 -21.265625 12.1875 -21.265625 C 9.78125 -21.265625 7.875 -20.363281 6.46875 -18.5625 C 5.070312 -16.769531 4.351562 -14.363281 4.3125 -11.34375 C 4.3125 -8.445312 4.992188 -6.078125 6.359375 -4.234375 C 7.734375 -2.398438 9.6875 -1.457031 12.21875 -1.40625 Z M 12.21875 -1.40625 "/></g></g></g><g fill="#264e86" fill-opacity="1"><g transform="translate(653.299846, 445.991091)"><g><path d="M 17.03125 -22.6875 L 17.03125 -20.796875 L 9.828125 -20.796875 L 9.796875 0 L 7.796875 0 L 7.765625 -20.796875 L 0.4375 -20.796875 L 0.4375 -22.6875 Z M 17.03125 -22.6875 "/></g></g></g><g fill="#264e86" fill-opacity="1"><g transform="translate(670.764675, 445.991091)"><g><path d="M 16.6875 -22.6875 L 16.6875 -20.796875 L 5.25 -20.796875 L 5.25 -12.65625 L 16.25 -12.65625 L 16.25 -10.78125 L 5.25 -10.78125 L 5.25 -1.890625 L 17.15625 -1.890625 L 17.15625 0 L 3.203125 0 L 3.203125 -22.6875 Z M 16.6875 -22.6875 "/></g></g></g><g fill="#264e86" fill-opacity="1"><g transform="translate(689.957191, 445.991091)"><g><path d="M 5.21875 -22.6875 L 17.71875 -2.734375 L 17.78125 -2.734375 L 17.78125 -22.6875 L 19.828125 -22.6875 L 19.828125 0 L 17.25 0 L 5 -19.609375 L 4.9375 -19.609375 L 4.9375 0 L 2.890625 0 L 2.890625 -22.6875 Z M 5.21875 -22.6875 "/></g></g></g><g fill="#264e86" fill-opacity="1"><g transform="translate(712.636373, 445.991091)"><g><path d="M 17.03125 -22.6875 L 17.03125 -20.796875 L 9.828125 -20.796875 L 9.796875 0 L 7.796875 0 L 7.765625 -20.796875 L 0.4375 -20.796875 L 0.4375 -22.6875 Z M 17.03125 -22.6875 "/></g></g></g><g fill="#264e86" fill-opacity="1"><g transform="translate(730.101253, 445.991091)"><g><path d="M 5.40625 -22.78125 L 5.40625 0 L 3.359375 0 L 3.359375 -22.78125 Z M 5.40625 -22.78125 "/></g></g></g><g fill="#264e86" fill-opacity="1"><g transform="translate(738.833668, 445.991091)"><g><path d="M 11.65625 -22.6875 L 20.703125 0 L 18.46875 0 L 16.0625 -6.125 L 4.78125 -6.125 L 2.390625 0 L 0.28125 0 L 9.265625 -22.6875 Z M 5.4375 -8.015625 L 15.328125 -8.015625 L 10.4375 -20.796875 Z M 5.4375 -8.015625 "/></g></g></g><g fill="#264e86" fill-opacity="1"><g transform="translate(759.785214, 445.991091)"><g><path d="M 5.1875 -22.6875 L 5.1875 -1.890625 L 16.59375 -1.890625 L 16.59375 0 L 3.140625 0 L 3.140625 -22.6875 Z M 5.1875 -22.6875 "/></g></g></g></svg>